<svg xmlns="http://www.w3.org/2000/svg" version="1.1" xmlns:xlink="http://www.w3.org/1999/xlink" xmlns:svgjs="http://svgjs.dev/svgjs" width="1000" height="750" viewBox="0 0 1000 750"><rect width="1000" height="750" fill="#ffffff"></rect><g transform="matrix(0.834,0,0,0.834,82.49454545454546,145.85396778611204)"><svg viewBox="0 0 396 247" data-background-color="#ffffff" preserveAspectRatio="xMidYMid meet" height="623" width="1000" xmlns="http://www.w3.org/2000/svg" xmlns:xlink="http://www.w3.org/1999/xlink"><g id="tight-bounds" transform="matrix(1,0,0,1,0.2400000000000091,-0.09999999999999432)"><svg viewBox="0 0 395.52 247.2" height="247.2" width="395.52"><g><svg></svg></g><g><svg viewBox="0 0 395.52 247.2" height="247.2" width="395.52"><g transform="matrix(1,0,0,1,75.54432,54.865166436090234)"><svg viewBox="0 0 244.43135999999998 137.46966712781952" height="137.46966712781952" width="244.43135999999998"><g><svg viewBox="0 0 244.43135999999998 137.46966712781952" height="137.46966712781952" width="244.43135999999998"><g><svg viewBox="0 0 244.43135999999998 137.46966712781952" height="137.46966712781952" width="244.43135999999998"><g><svg viewBox="0 0 244.43135999999998 137.46966712781952" height="137.46966712781952" width="244.43135999999998"><g id="textblocktransform"><svg viewBox="0 0 244.43135999999998 137.46966712781952" height="137.46966712781952" width="244.43135999999998" id="textblock"><g><svg viewBox="0 0 244.43135999999998 137.46966712781952" height="137.46966712781952" width="244.43135999999998"><g transform="matrix(1,0,0,1,0,0)"><svg width="244.43135999999998" viewBox="3.75 -36.900001525878906 66.5 37.400001525878906" height="137.46966712781952" data-palette-color="#4b91f1"><path d="M33.85-4Q33.7-2.05 32.4-0.78 31.1 0.5 29.4 0.5 27.7 0.5 26.23-0.58 24.75-1.65 22.25-4.4L22.25-4.4 11.7-15.7 11.7-4.35Q11.7-2.15 13.2-1.45L13.2-1.45Q11.65 0.5 9.35 0.5L9.35 0.5Q5.25 0.5 5.25-4.5L5.25-4.5 5.25-32.1Q5.25-34.3 3.75-34.95L3.75-34.95Q5.2-36.9 7.55-36.9L7.55-36.9Q11.7-36.9 11.7-31.95L11.7-31.95 11.7-20.75 22.65-32.95Q24.65-35.2 26-36.05 27.35-36.9 29.1-36.9 30.85-36.9 32.05-35.68 33.25-34.45 33.45-32.65L33.45-32.65Q31.55-32.65 29.6-30.85L29.6-30.85 17.2-19.05 29.3-6.4Q31.5-4.05 33.85-4L33.85-4ZM53.8-26.35L48.8-11.7 58.2-11.7 53.8-26.35ZM65.95 0.5L65.95 0.5Q64.2 0.5 63.15-0.35 62.1-1.2 61.25-3.4L61.25-3.4 59.75-7.55 47.3-7.55 45.7-3.3Q44.35 0.5 41.5 0.5L41.5 0.5Q40.2 0.5 39.1-0.13 38-0.75 37.6-1.7L37.6-1.7Q38.9-2.25 39.95-4.95L39.95-4.95 50.75-32.6Q50.05-34.3 49.1-35.05L49.1-35.05Q50.45-36.9 52.72-36.9 55-36.9 55.97-35.77 56.95-34.65 57.95-31.85L57.95-31.85 67.35-5.6Q68.45-2.65 70.25-1.75L70.25-1.75Q69.1 0.5 65.95 0.5Z" opacity="1" transform="matrix(1,0,0,1,0,0)" fill="#4b91f1" class="wordmark-text-0" data-fill-palette-color="primary" id="text-0"></path></svg></g></svg></g></svg></g></svg></g><g></g></svg></g></svg></g></svg></g><g><path d="M129.221 22.412A122.216 122.216 0 0 1 266.299 22.412L253.902 22.412A109.819 109.819 0 0 0 141.618 22.412L129.221 22.412M129.221 224.788A122.216 122.216 0 0 0 266.299 224.788L253.902 224.788A109.819 109.819 0 0 1 141.618 224.788L129.221 224.788" fill="#4b91f1" stroke="transparent" data-fill-palette-color="tertiary"></path></g></svg></g><defs></defs></svg><rect width="395.52" height="247.2" fill="none" stroke="none" visibility="hidden"></rect></g></svg></g></svg>